<?xml version="1.0" encoding="UTF-8"?>
<svg xmlns="http://www.w3.org/2000/svg" xmlns:xlink="http://www.w3.org/1999/xlink" width="60px" height="px" viewBox="0 0 60 60" version="1.1">
<g id="surface1">
<path style=" stroke:none;fill-rule:nonzero;fill:rgb(100%,100%,100%);fill-opacity:1;" d="M 59.992188 31.5 C 59.992188 26.453125 56.855469 22.097656 52.203125 20.382812 C 52.402344 19.316406 52.5 18.234375 52.496094 17.148438 C 52.496094 7.796875 44.90625 0.207031 35.554688 0.207031 C 30.117188 0.207031 25.023438 2.800781 21.839844 7.257812 C 20.273438 6.03125 18.363281 5.394531 16.355469 5.394531 C 11.410156 5.394531 7.347656 9.410156 7.347656 14.40625 C 7.347656 15.484375 7.542969 16.5625 7.882812 17.542969 C 3.183594 19.15625 0 23.664062 0 28.65625 C 0 33.703125 3.132812 38.109375 7.835938 39.824219 C 7.640625 40.851562 7.542969 41.929688 7.542969 43.054688 C 7.542969 52.359375 15.132812 59.949219 24.4375 59.949219 C 29.921875 59.949219 34.964844 57.304688 38.148438 52.898438 C 39.714844 54.125 41.675781 54.808594 43.683594 54.808594 C 48.628906 54.808594 52.695312 50.792969 52.695312 45.796875 C 52.695312 44.722656 52.496094 43.644531 52.15625 42.664062 C 56.757812 41 59.992188 36.492188 59.992188 31.5 Z M 59.992188 31.5 "/>
<path style=" stroke:none;fill-rule:nonzero;fill:rgb(95.686275%,74.117649%,9.803922%);fill-opacity:1;" d="M 23.457031 25.867188 L 36.828125 31.988281 L 50.34375 20.136719 C 50.539062 19.152344 50.636719 18.152344 50.636719 17.148438 C 50.636719 8.824219 43.878906 2.066406 35.554688 2.066406 C 30.558594 2.066406 25.90625 4.515625 23.113281 8.628906 L 20.863281 20.285156 Z M 23.457031 25.867188 "/>
<path style=" stroke:none;fill-rule:nonzero;fill:rgb(23.529412%,74.509805%,69.411767%);fill-opacity:1;" d="M 9.597656 40.019531 C 9.402344 41 9.304688 42.027344 9.304688 43.054688 C 9.304688 51.382812 16.113281 58.1875 24.4375 58.1875 C 29.480469 58.1875 34.132812 55.691406 36.972656 51.578125 L 39.175781 39.921875 L 36.191406 34.242188 L 22.773438 28.121094 Z M 9.597656 40.019531 "/>
<path style=" stroke:none;fill-rule:nonzero;fill:rgb(91.37255%,27.843139%,54.901963%);fill-opacity:1;" d="M 9.5 16.855469 L 18.660156 19.011719 L 20.714844 8.578125 C 19.441406 7.601562 17.921875 7.109375 16.308594 7.109375 C 12.339844 7.109375 9.058594 10.34375 9.058594 14.359375 C 9.058594 15.191406 9.207031 16.070312 9.5 16.855469 Z M 9.5 16.855469 "/>
<path style=" stroke:none;fill-rule:nonzero;fill:rgb(17.254902%,27.058825%,56.078434%);fill-opacity:1;" d="M 8.71875 19.058594 C 4.601562 20.382812 1.761719 24.347656 1.761719 28.65625 C 1.761719 32.871094 4.359375 36.640625 8.277344 38.109375 L 21.15625 26.453125 L 18.804688 21.410156 Z M 8.71875 19.058594 "/>
<path style=" stroke:none;fill-rule:nonzero;fill:rgb(58.431375%,77.64706%,23.921569%);fill-opacity:1;" d="M 39.324219 51.527344 C 40.597656 52.507812 42.117188 53.046875 43.683594 53.046875 C 47.648438 53.046875 50.929688 49.8125 50.929688 45.796875 C 50.929688 44.917969 50.785156 44.085938 50.488281 43.300781 L 41.332031 41.144531 Z M 39.324219 51.527344 "/>
<path style=" stroke:none;fill-rule:nonzero;fill:rgb(9.019608%,40.000001%,33.333334%);fill-opacity:1;" d="M 41.183594 38.746094 L 51.273438 41.097656 C 55.386719 39.726562 58.226562 35.808594 58.226562 31.5 C 58.226562 27.285156 55.632812 23.566406 51.714844 22.046875 L 38.492188 33.605469 Z M 41.183594 38.746094 "/>
</g>
</svg>
